<svg viewBox="0 0 1080 1080" fill="none" xmlns="http://www.w3.org/2000/svg">
    <defs>
        <filter id="filter" x="-20%" y="-20%" width="140%" height="140%"
            filterUnits="objectBoundingBox" primitiveUnits="userSpaceOnUse"
            color-interpolation-filters="linearRGB">
            <feMorphology operator="dilate" radius="20 20" in="SourceAlpha" result="morphology" />
            <feFlood flood-color="#ffffff" flood-opacity="1" result="flood" />
            <feComposite in="flood" in2="morphology" operator="in" result="composite" />
            <feMerge result="merge">
                <feMergeNode in="composite" result="mergeNode" />
                <feMergeNode in="SourceGraphic" result="mergeNode1" />
            </feMerge>
        </filter>
    </defs>
    <g id="notion-avatar" filter="url(#filter)">
        <g id="notion-avatar-face" fill="#ffffff">      <!--?xml
            version="1.0" encoding="UTF-8"?-->
            <title>Face/ 5</title>
            <g id="Face/-5" stroke="none" stroke-width="1" fill-rule="evenodd"
                stroke-linecap="round" stroke-linejoin="round">
                <path
                    d="M532,379 C664.54834,379 772,486.45166 772,619 C772,751.54834 704.54834,859 532,859 C405.842528,859 335.866563,801.559592 307.358668,718.866959 C265.336704,716.464588 232,681.625396 232,639 C232,599.134956 261.158843,566.080325 299.312086,560.00055 C325.599297,455.979213 419.809919,379 532,379 Z M295.858895,624.545187 L304.141105,655.454813"
                    id="Path" stroke="#000000" stroke-width="24" />
            </g>
        </g>
        <g id="notion-avatar-nose">      <!--?xml
            version="1.0" encoding="UTF-8"?-->
            <title>Nose/ 0</title>
            <g id="Nose/-0" stroke="none" stroke-width="1" fill="none" fill-rule="evenodd"
                stroke-linecap="round" stroke-linejoin="round">
                <line x1="637" y1="596" x2="661.856189" y2="682.499537" id="Line" stroke="#000000"
                    stroke-width="16"
                    transform="translate(649.428094, 639.249768) rotate(1.032339) translate(-649.428094, -639.249768) " />
            </g>
        </g>
        <g id="notion-avatar-mouth">
            <g id="Mouth/ 13">
                <g id="Group">
                    <path id="Path"
                        d="M528 765C528 765 599.931 769.393 623.066 764.87C646.202 760.346 687 744 687 744"
                        stroke="black" stroke-width="16" stroke-linecap="round"
                        stroke-linejoin="round" />
                    <path id="Path_2"
                        d="M668 756C668 756 668 785.043 638.943 793.34C609.886 801.638 555 768.447 555 768.447"
                        stroke="black" stroke-width="16" stroke-linecap="round"
                        stroke-linejoin="round" />
                    <path id="Path_3"
                        d="M505.348 782.386C505.348 782.386 499.053 772.522 503.446 759.4C507.839 746.278 519.439 740.299 519.439 740.299"
                        stroke="black" stroke-width="6" stroke-linecap="round"
                        stroke-linejoin="round" />
                    <path id="Path_4"
                        d="M711.499 747.668C711.499 747.668 714.478 743.128 712.342 737.053C710.205 730.977 704.647 728.182 704.647 728.182"
                        stroke="black" stroke-width="6" stroke-linecap="round"
                        stroke-linejoin="round" />
                </g>
            </g>
        </g>
        <g id="notion-avatar-eyes">
            <g id="Eyes/ 12">
                <g id="Group 2">
                    <path id="Path" fill-rule="evenodd" clip-rule="evenodd"
                        d="M534 528.156C534 528.156 562.569 554.438 586.169 549.907C609.769 545.375 599.832 520 599.832 520C599.832 520 614.738 546.282 593.622 554.438C572.506 562.595 534 528.156 534 528.156Z"
                        fill="black" stroke="black" stroke-width="6" stroke-linecap="round"
                        stroke-linejoin="round" />
                    <path id="Path_2" fill-rule="evenodd" clip-rule="evenodd"
                        d="M672 528.156C672 528.156 700.569 554.438 724.169 549.907C747.769 545.375 737.832 520 737.832 520C737.832 520 752.738 546.282 731.622 554.438C710.506 562.595 672 528.156 672 528.156Z"
                        fill="black" stroke="black" stroke-width="6" stroke-linecap="round"
                        stroke-linejoin="round" />
                </g>
            </g>
        </g>
        <g id="notion-avatar-eyebrows">      <!--?xml
            version="1.0" encoding="UTF-8"?-->
            <title>Eyebrows/ 4</title>
            <g id="Eyebrows/-4" stroke="none" stroke-width="1" fill="none" fill-rule="evenodd"
                stroke-linecap="round" stroke-linejoin="round">
                <g id="Group" transform="translate(525.000000, 504.000000)" stroke="#000000"
                    stroke-width="12">
                    <path d="M0,12 C12.8888889,4 27.8888889,0 45,0 C62.1111111,0 77.1111111,4 90,12"
                        id="Path" />
                    <path
                        d="M138,12 C150.888889,4 165.888889,0 183,0 C200.111111,0 215.111111,4 228,12"
                        id="Path" />
                </g>
            </g>
        </g>
        <g id="notion-avatar-glasses">
            <g id="Glasses/ 12">
                <g id="Group">
                    <path id="Path" fill-rule="evenodd" clip-rule="evenodd"
                        d="M805.209 500.217C805.813 491.284 798.652 484 789.699 484H455C446.163 484 439 491.163 439 500V575.76C439 580.706 441.26 585.352 445.249 588.275C465.881 603.396 532.959 650 575.94 650C627.244 650 619.761 588.343 666.321 588.343C712.881 588.343 690.97 650 747.116 640.514C791.7 632.982 802.608 538.717 805.209 500.217Z"
                        fill="white" stroke="black" stroke-width="12" stroke-linecap="round"
                        stroke-linejoin="round" />
                    <g id="Group_2">
                        <path id="Mask" fill-rule="evenodd" clip-rule="evenodd"
                            d="M783.642 509.995C783.893 505.509 780.3 501.847 775.807 501.847L465 501.847C460.582 501.847 457 505.428 457 509.847V561.349C457 563.759 458.047 566.008 459.946 567.493C474.566 578.927 540.245 628.47 580.546 628.47C611.607 628.47 603.397 573.489 662.087 568.491C720.777 563.492 704.644 623.472 742.954 620.14C775.033 617.35 782.169 536.288 783.642 509.995Z"
                            fill="black" />
                        <mask id="mask0_0_1157" style="mask-type:alpha" maskUnits="userSpaceOnUse"
                            x="457" y="501" width="327" height="128">
                            <path id="Mask_2" fill-rule="evenodd" clip-rule="evenodd"
                                d="M783.642 509.995C783.893 505.509 780.3 501.847 775.807 501.847L465 501.847C460.582 501.847 457 505.428 457 509.847V561.349C457 563.759 458.047 566.008 459.946 567.493C474.566 578.927 540.245 628.47 580.546 628.47C611.607 628.47 603.397 573.489 662.087 568.491C720.777 563.492 704.644 623.472 742.954 620.14C775.033 617.35 782.169 536.288 783.642 509.995Z"
                                fill="white" />
                        </mask>
                        <g mask="url(#mask0_0_1157)">
                            <path id="Path_2" d="M671.808 492.742L781.264 580.828" stroke="white"
                                stroke-width="16" stroke-linecap="round" stroke-linejoin="round" />
                            <path id="Path_3" d="M696.436 478.979L805.892 567.065" stroke="white"
                                stroke-width="8" stroke-linecap="round" stroke-linejoin="round" />
                        </g>
                    </g>
                    <path id="Path_4" fill-rule="evenodd" clip-rule="evenodd"
                        d="M439 492.036L284 523V566.875L439 552V492.036Z" fill="black"
                        stroke="black" stroke-width="12" stroke-linecap="round"
                        stroke-linejoin="round" />
                </g>
            </g>
        </g>
        <g id="notion-avatar-hair">
            <g id="Hairstyle/ 47">
                <path id="Path" fill-rule="evenodd" clip-rule="evenodd"
                    d="M328.117 564.825L366 655C366 655 402 529.592 402 512C402 494.407 365 447 449 411C533 375 616 411 616 411C616 411 623 402 630 399C637 396 649 395 649 395C649 395 488 338 400.578 397.102C313.157 456.203 290 565 290 565L328.117 564.825Z"
                    fill="black" stroke="black" stroke-width="12" stroke-linecap="round"
                    stroke-linejoin="round" />
            </g>
        </g>
        <g id="notion-avatar-accessories">      <!--?xml
            version="1.0" encoding="UTF-8"?-->
            <title>Accessories/ 0</title>
            <g id="Accessories/-0" stroke="none" stroke-width="1" fill="none" fill-rule="evenodd" />
        </g>
        <g id="notion-avatar-details">      <!--?xml
            version="1.0" encoding="UTF-8"?-->
            <title>Details/ 0</title>
            <g id="Details/-0" stroke="none" stroke-width="1" fill="none" fill-rule="evenodd" />
        </g>
        <g id="notion-avatar-beard">      <!--?xml
            version="1.0" encoding="UTF-8"?-->
            <title>Beard/ 0</title>
            <g id="Beard/-0" stroke="none" stroke-width="1" fill="none" fill-rule="evenodd" />
        </g>
    </g>
</svg>