<svg viewBox="0 0 1080 1080" fill="none" xmlns="http://www.w3.org/2000/svg">
    <defs>
        <filter id="filter" x="-20%" y="-20%" width="140%" height="140%"
            filterUnits="objectBoundingBox" primitiveUnits="userSpaceOnUse"
            color-interpolation-filters="linearRGB">
            <feMorphology operator="dilate" radius="20 20" in="SourceAlpha" result="morphology" />
            <feFlood flood-color="#ffffff" flood-opacity="1" result="flood" />
            <feComposite in="flood" in2="morphology" operator="in" result="composite" />
            <feMerge result="merge">
                <feMergeNode in="composite" result="mergeNode" />
                <feMergeNode in="SourceGraphic" result="mergeNode1" />
            </feMerge>
        </filter>
    </defs>
    <g id="notion-avatar" filter="url(#filter)">
        <g id="notion-avatar-face" fill="#ffffff">      <!--?xml
            version="1.0" encoding="UTF-8"?-->
            <title>Face/ 7</title>
            <g id="Face/-7" stroke="none" stroke-width="1" fill-rule="evenodd"
                stroke-linecap="round" stroke-linejoin="round">
                <path
                    d="M532,379 C664.54834,379 772,486.45166 772,619 C772,751.54834 764.54834,919 572,919 C415.13263,919 351.668898,801.612202 313.752775,718.980575 L313.322946,718.989282 L312,719 C267.81722,719 232,683.18278 232,639 C232,599.134956 261.158843,566.080325 299.312086,560.00055 C325.599297,455.979213 419.809919,379 532,379 Z M295.858895,624.545187 L304.141105,655.454813"
                    id="Path" stroke="#000000" stroke-width="24" />
            </g>
        </g>
        <g id="notion-avatar-nose">      <!--?xml
            version="1.0" encoding="UTF-8"?-->
            <title>Nose/ 3</title>
            <g id="Nose/-3" stroke="none" stroke-width="1" fill="none" fill-rule="evenodd"
                stroke-linecap="round" stroke-linejoin="round">
                <path
                    d="M636.843465,595.910607 C654.994141,637.483681 663.279537,666.31686 661.699654,682.410144 C660.11977,698.503428 648.515798,703.474491 626.887739,697.323331"
                    id="Line" stroke="#000000" stroke-width="16"
                    transform="translate(644.388576, 647.892684) rotate(1.032339) translate(-644.388576, -647.892684) " />
            </g>
        </g>
        <g id="notion-avatar-mouth">
            <g id="Mouth/ 12">
                <g id="Group">
                    <path id="Path" fill-rule="evenodd" clip-rule="evenodd"
                        d="M543.87 801.555C524.148 789.209 514.057 767.766 521.396 758.019C528.734 748.272 569 762.637 609 762.319C649 762 689.266 748.272 696.604 758.019C703.943 767.766 693.852 789.209 674.13 801.555C665.101 807.207 637.818 814 609.443 814C581.069 814 552.807 807.15 543.87 801.555Z"
                        stroke="black" stroke-width="16" stroke-linecap="round"
                        stroke-linejoin="round" />
                    <path id="Path_2"
                        d="M569.322 804C569.322 804 589.161 796 609 796C628.838 796 648.677 804 648.677 804"
                        stroke="black" stroke-width="8" stroke-linecap="round"
                        stroke-linejoin="round" />
                </g>
            </g>
        </g>
        <g id="notion-avatar-eyes">      <!--?xml
            version="1.0" encoding="UTF-8"?-->
            <title>Eyes/ 8</title>
            <g id="Eyes/-8" stroke="none" stroke-width="1" fill="none" fill-rule="evenodd">
                <path
                    d="M570,516 C578.836556,516 586,526.745166 586,540 C586,553.254834 578.836556,564 570,564 C561.163444,564 554,553.254834 554,540 C554,526.745166 561.163444,516 570,516 Z M708,516 C716.836556,516 724,526.745166 724,540 C724,553.254834 716.836556,564 708,564 C699.163444,564 692,553.254834 692,540 C692,526.745166 699.163444,516 708,516 Z"
                    id="Combined-Shape" fill="#000000" />
            </g>
        </g>
        <g id="notion-avatar-eyebrows">
            <g id="Eyebrows/ 12">
                <g id="Group">
                    <path id="Path" fill-rule="evenodd" clip-rule="evenodd"
                        d="M681 505.316C681 505.316 698.641 492.863 706.392 490.578C714.144 488.294 738 489.316 738 489.316L755 494.913C755 494.913 730.25 494.897 716.549 497.08C702.848 499.263 681 505.316 681 505.316Z"
                        fill="black" stroke="black" stroke-width="8" stroke-linecap="round"
                        stroke-linejoin="round" />
                    <path id="Path_2" fill-rule="evenodd" clip-rule="evenodd"
                        d="M597 505.316C597 505.316 579.359 492.863 571.608 490.578C563.856 488.294 540 489.316 540 489.316L523 494.913C523 494.913 547.75 494.897 561.451 497.08C575.152 499.263 597 505.316 597 505.316Z"
                        fill="black" stroke="black" stroke-width="8" stroke-linecap="round"
                        stroke-linejoin="round" />
                </g>
            </g>
        </g>
        <g id="notion-avatar-glasses">
            <g id="Glasses/ 13">
                <g id="Group">
                    <path id="Path" d="M594.966 482.529H684.378" stroke="black" stroke-width="8"
                        stroke-linecap="round" stroke-linejoin="round" />
                    <path id="Path_2"
                        d="M593 517.765C593 517.765 615.694 501 638 501C660.306 501 682.412 517.765 682.412 517.765"
                        stroke="black" stroke-width="8" stroke-linecap="round"
                        stroke-linejoin="round" />
                    <path id="Path_3" d="M510.484 517.569L293.827 555.771" stroke="black"
                        stroke-width="16" stroke-linecap="round" stroke-linejoin="round" />
                    <g id="Rectangle">
                        <path id="Mask" fill-rule="evenodd" clip-rule="evenodd"
                            d="M470.242 498.62C502.983 452.135 598.089 462.262 619.362 504.282C640.636 546.302 563.647 605 516.916 605C470.186 605 437.501 545.106 470.242 498.62Z"
                            fill="#0C0C0C" />
                        <mask id="mask0_0_1173" style="mask-type:alpha" maskUnits="userSpaceOnUse"
                            x="457" y="468" width="166" height="137">
                            <path id="Mask_2" fill-rule="evenodd" clip-rule="evenodd"
                                d="M470.242 498.62C502.983 452.135 598.089 462.262 619.362 504.282C640.636 546.302 563.647 605 516.916 605C470.186 605 437.501 545.106 470.242 498.62Z"
                                fill="white" />
                        </mask>
                        <g mask="url(#mask0_0_1173)">
                            <rect id="Rectangle_2" x="549.624" y="439.067" width="210" height="28"
                                transform="rotate(60 549.624 439.067)" fill="white" />
                        </g>
                    </g>
                    <g id="Rectangle_3">
                        <path id="Mask_3" fill-rule="evenodd" clip-rule="evenodd"
                            d="M804.758 498.62C772.017 452.135 676.911 462.262 655.638 504.282C634.364 546.302 711.353 605 758.084 605C804.814 605 837.499 545.106 804.758 498.62Z"
                            fill="#0C0C0C" />
                        <mask id="mask1_0_1173" style="mask-type:alpha" maskUnits="userSpaceOnUse"
                            x="652" y="468" width="166" height="137">
                            <path id="Mask_4" fill-rule="evenodd" clip-rule="evenodd"
                                d="M804.758 498.62C772.017 452.135 676.911 462.262 655.638 504.282C634.364 546.302 711.353 605 758.084 605C804.814 605 837.499 545.106 804.758 498.62Z"
                                fill="white" />
                        </mask>
                        <g mask="url(#mask1_0_1173)">
                            <rect id="Rectangle_4" x="739.624" y="439.067" width="210" height="28"
                                transform="rotate(60 739.624 439.067)" fill="white" />
                        </g>
                    </g>
                    <path id="Path_4" fill-rule="evenodd" clip-rule="evenodd"
                        d="M470.242 498.62C502.983 452.135 598.089 462.262 619.362 504.282C640.636 546.302 563.647 605 516.916 605C470.186 605 437.501 545.106 470.242 498.62Z"
                        stroke="black" stroke-width="8" stroke-linecap="round"
                        stroke-linejoin="round" />
                    <path id="Path_5" fill-rule="evenodd" clip-rule="evenodd"
                        d="M804.758 498.62C772.017 452.135 676.911 462.262 655.638 504.282C634.364 546.302 711.353 605 758.084 605C804.814 605 837.499 545.106 804.758 498.62Z"
                        stroke="black" stroke-width="8" stroke-linecap="round"
                        stroke-linejoin="round" />
                </g>
            </g>
        </g>
        <g id="notion-avatar-hair">
            <g id="Hairstyle/ 31">
                <path id="Path" fill-rule="evenodd" clip-rule="evenodd"
                    d="M304.306 565.52C337.243 585.751 365.511 672.712 365.511 672.712C365.511 672.712 365.252 601.808 393 560C420.749 518.192 460.001 483 460.001 483C460.001 483 453.001 467 444.44 451.95C435.88 436.899 399.899 409.29 399.899 409.29C399.899 409.29 582.534 466.231 642.612 454.357C702.69 442.484 749.621 420.302 780.515 364.949C811.409 309.595 816.59 213.248 816.59 213.248C816.59 213.248 733.414 266.466 695.832 260.494C658.25 254.523 639.768 238.18 619.952 207.908C612.261 196.159 593.16 162.47 593.16 162.47C593.16 162.47 586.419 185.366 586.817 192.079C588.205 215.501 593.616 219.059 585.681 214.893C569.218 206.25 551.73 197.141 533.324 187.407C519.054 179.861 497.63 150.783 497.63 150.783C497.63 150.783 491.035 170.889 493.648 185.455C495.292 194.615 510.821 224.307 510.821 224.307C510.821 224.307 485.652 199.471 442.094 198.945C416.855 198.641 380.949 210.817 333.977 222.605C326.905 224.38 311.824 221.908 311.824 221.908L354.267 245.388C354.267 245.388 274.534 271.192 255.789 297.105C249.4 305.936 240.401 317.865 232.782 334.906C225.497 351.2 211.516 400.336 211.516 400.336C211.516 400.336 219.8 377.186 237.879 360.988C255.958 344.789 295.534 342.016 295.534 342.016C295.534 342.016 241.217 374.824 232.109 410.494C223.002 446.165 251.335 572.688 251.335 572.688C251.335 572.688 271.368 545.289 304.306 565.52Z"
                    fill="black" stroke="black" stroke-width="12" stroke-linecap="round"
                    stroke-linejoin="round" />
            </g>
        </g>
        <g id="notion-avatar-accessories">      <!--?xml
            version="1.0" encoding="UTF-8"?-->
            <title>Accessories/ 0</title>
            <g id="Accessories/-0" stroke="none" stroke-width="1" fill="none" fill-rule="evenodd" />
        </g>
        <g id="notion-avatar-details">      <!--?xml
            version="1.0" encoding="UTF-8"?-->
            <title>Details/ 0</title>
            <g id="Details/-0" stroke="none" stroke-width="1" fill="none" fill-rule="evenodd" />
        </g>
        <g id="notion-avatar-beard">      <!--?xml
            version="1.0" encoding="UTF-8"?-->
            <title>Beard/ 0</title>
            <g id="Beard/-0" stroke="none" stroke-width="1" fill="none" fill-rule="evenodd" />
        </g>
    </g>
</svg>