<svg viewBox="0 0 1080 1080" fill="none" xmlns="http://www.w3.org/2000/svg">
    <defs>
        <filter id="filter" x="-20%" y="-20%" width="140%" height="140%"
            filterUnits="objectBoundingBox" primitiveUnits="userSpaceOnUse"
            color-interpolation-filters="linearRGB">
            <feMorphology operator="dilate" radius="20 20" in="SourceAlpha" result="morphology" />
            <feFlood flood-color="#ffffff" flood-opacity="1" result="flood" />
            <feComposite in="flood" in2="morphology" operator="in" result="composite" />
            <feMerge result="merge">
                <feMergeNode in="composite" result="mergeNode" />
                <feMergeNode in="SourceGraphic" result="mergeNode1" />
            </feMerge>
        </filter>
    </defs>
    <g id="notion-avatar" filter="url(#filter)">
        <g id="notion-avatar-face" fill="#ffffff">      <!--?xml
            version="1.0" encoding="UTF-8"?-->
            <title>Face/ 6</title>
            <g id="Face/-6" stroke="none" stroke-width="1" fill-rule="evenodd"
                stroke-linecap="round" stroke-linejoin="round">
                <path
                    d="M532,379 C664.54834,379 772,486.45166 772,619 C772,751.54834 764.54834,899 532,899 C402.610491,899 332.317998,816.086314 305.249034,718.717925 C264.225797,715.291578 232,680.909158 232,639 C232,599.134956 261.158843,566.080325 299.312086,560.00055 C325.599297,455.979213 419.809919,379 532,379 Z M295.858895,624.545187 L304.141105,655.454813"
                    id="Path" stroke="#000000" stroke-width="24" />
            </g>
        </g>
        <g id="notion-avatar-nose">
            <g id="Nose/ 11">
                <path id="Path" fill-rule="evenodd" clip-rule="evenodd"
                    d="M648.516 601C648.516 601 664.222 603.637 672 609.977C685.06 620.622 693.906 641.256 692.774 653.58C690.065 683.076 644 684.359 644 684.359C644 684.359 700 689.489 700 653.58C700 637.222 689.433 619.065 672 608.695C663.922 603.889 648.516 601 648.516 601Z"
                    fill="black" stroke="black" stroke-width="6" stroke-linecap="round"
                    stroke-linejoin="round" />
            </g>
        </g>
        <g id="notion-avatar-mouth">      <!--?xml
            version="1.0" encoding="UTF-8"?-->
            <title>Mouth/ 10</title>
            <g id="Mouth/-10" stroke="none" stroke-width="1" fill="none" fill-rule="evenodd"
                stroke-linecap="round" stroke-linejoin="round">
                <path
                    d="M549,759 C576.33038,765.666667 599.663714,769 619,769 C638.336286,769 655.002953,765.666667 669,759 C656.33038,792.333333 632.997047,809 599,809 C565.002953,809 548.336286,792.333333 549,759 Z"
                    id="Path" stroke="#000000" stroke-width="16" />
            </g>
        </g>
        <g id="notion-avatar-eyes">
            <g id="Eyes/ 12">
                <g id="Group 2">
                    <path id="Path" fill-rule="evenodd" clip-rule="evenodd"
                        d="M534 528.156C534 528.156 562.569 554.438 586.169 549.907C609.769 545.375 599.832 520 599.832 520C599.832 520 614.738 546.282 593.622 554.438C572.506 562.595 534 528.156 534 528.156Z"
                        fill="black" stroke="black" stroke-width="6" stroke-linecap="round"
                        stroke-linejoin="round" />
                    <path id="Path_2" fill-rule="evenodd" clip-rule="evenodd"
                        d="M672 528.156C672 528.156 700.569 554.438 724.169 549.907C747.769 545.375 737.832 520 737.832 520C737.832 520 752.738 546.282 731.622 554.438C710.506 562.595 672 528.156 672 528.156Z"
                        fill="black" stroke="black" stroke-width="6" stroke-linecap="round"
                        stroke-linejoin="round" />
                </g>
            </g>
        </g>
        <g id="notion-avatar-eyebrows">      <!--?xml
            version="1.0" encoding="UTF-8"?-->
            <title>Eyebrows/ 0</title>
            <g id="Eyebrows/-0" stroke="none" stroke-width="1" fill="none" fill-rule="evenodd"
                stroke-linecap="round" stroke-linejoin="round">
                <g id="Group" transform="translate(525.000000, 492.000000)" stroke="#000000"
                    stroke-width="16">
                    <path
                        d="M0,16 C12.8888889,5.33333333 27.8888889,0 45,0 C62.1111111,0 77.1111111,5.33333333 90,16"
                        id="Path" />
                    <path
                        d="M138,16 C150.888889,5.33333333 165.888889,0 183,0 C200.111111,0 215.111111,5.33333333 228,16"
                        id="Path" />
                </g>
            </g>
        </g>
        <g id="notion-avatar-glasses">      <!--?xml
            version="1.0" encoding="UTF-8"?-->
            <title>Glasses/ 0</title>
            <g id="Glasses/-0" stroke="none" stroke-width="1" fill="none" fill-rule="evenodd" />
        </g>
        <g id="notion-avatar-hair">
            <g id="Hairstyle/ 45">
                <path id="Path" fill-rule="evenodd" clip-rule="evenodd"
                    d="M292.971 564.825C277.873 567.272 258.567 554.108 246.937 532.237C233.584 507.123 235.409 480.039 251.014 471.742C252.305 471.055 253.651 470.519 255.04 470.126C243.353 453.821 242.471 429.447 254.565 408.5C260.569 398.1 268.904 390.048 278.219 384.817C275.44 369.838 277.642 354.211 285.597 340.432C293.987 325.9 307.357 315.882 322.718 311.056C323.667 302.497 326.329 294.076 330.847 286.25C343.211 264.836 366.387 253.224 390.812 253.583C398.178 228.269 419.208 210 444 210C454.193 210 463.75 213.088 471.982 218.483C484.406 205.889 502.217 198 522 198C543.277 198 562.272 207.126 574.741 221.414C585.992 214.179 599.274 210 613.5 210C654.093 210 687 244.026 687 286L686.998 286.645C689.603 286.22 692.277 286 695 286C723.167 286 746 309.505 746 338.5C746 347.535 743.783 356.037 739.878 363.461C761.167 393.857 753.207 421.37 716 446C694.607 460.162 604.369 465.353 550.694 460.999C511.12 457.789 428.105 430.958 412 428C404.393 426.603 415.06 436.603 444 458C409.921 485.157 392.711 504.618 392.37 516.385L392.365 516.739C392.365 528.233 383.925 572.725 367.044 650.214L366 655L328.117 564.825L292.971 564.825Z"
                    fill="black" stroke="black" stroke-width="12" stroke-linecap="round"
                    stroke-linejoin="round" />
            </g>
        </g>
        <g id="notion-avatar-accessories">      <!--?xml
            version="1.0" encoding="UTF-8"?-->
            <title>Accessories/ 0</title>
            <g id="Accessories/-0" stroke="none" stroke-width="1" fill="none" fill-rule="evenodd" />
        </g>
        <g id="notion-avatar-details">      <!--?xml
            version="1.0" encoding="UTF-8"?-->
            <title>Details/ 0</title>
            <g id="Details/-0" stroke="none" stroke-width="1" fill="none" fill-rule="evenodd" />
        </g>
        <g id="notion-avatar-beard">      <!--?xml
            version="1.0" encoding="UTF-8"?-->
            <title>Beard/ 0</title>
            <g id="Beard/-0" stroke="none" stroke-width="1" fill="none" fill-rule="evenodd" />
        </g>
    </g>
</svg>