<svg viewBox="0 0 1080 1080" fill="none" xmlns="http://www.w3.org/2000/svg">
    <defs>
        <filter id="filter" x="-20%" y="-20%" width="140%" height="140%"
            filterUnits="objectBoundingBox" primitiveUnits="userSpaceOnUse"
            color-interpolation-filters="linearRGB">
            <feMorphology operator="dilate" radius="20 20" in="SourceAlpha" result="morphology" />
            <feFlood flood-color="#ffffff" flood-opacity="1" result="flood" />
            <feComposite in="flood" in2="morphology" operator="in" result="composite" />
            <feMerge result="merge">
                <feMergeNode in="composite" result="mergeNode" />
                <feMergeNode in="SourceGraphic" result="mergeNode1" />
            </feMerge>
        </filter>
    </defs>
    <g id="notion-avatar" filter="url(#filter)">
        <g id="notion-avatar-face" fill="#ffffff">      <!--?xml
            version="1.0" encoding="UTF-8"?-->
            <title>Face/ 1</title>
            <g id="Face/-1" stroke="none" stroke-width="1" fill-rule="evenodd"
                stroke-linecap="round" stroke-linejoin="round">
                <path
                    d="M532,379 C664.54834,379 772,486.45166 772,619 C772,751.54834 664.54834,879 532,879 C435.13263,879 351.668898,801.612202 313.752775,718.980575 L313.322946,718.989282 L312,719 C267.81722,719 232,683.18278 232,639 C232,599.134956 261.158843,566.080325 299.312086,560.00055 C325.599297,455.979213 419.809919,379 532,379 Z M295.858895,624.545187 L304.141105,655.454813"
                    id="Path" stroke="#000000" stroke-width="24" />
            </g>
        </g>
        <g id="notion-avatar-nose">      <!--?xml
            version="1.0" encoding="UTF-8"?-->
            <title>Nose/ 6</title>
            <g id="Nose/-6" stroke="none" stroke-width="1" fill="none" fill-rule="evenodd"
                stroke-linecap="round" stroke-linejoin="round">
                <path
                    d="M673,568 C662.55102,590.836147 657.326531,613.414126 657.326531,635.733939 C657.326531,669.213657 685.938776,657.439501 683,683 C681.040816,700.040333 661.707483,708.388498 625,708.044495"
                    id="Path" stroke="#000000" stroke-width="16" />
            </g>
        </g>
        <g id="notion-avatar-mouth">      <!--?xml
            version="1.0" encoding="UTF-8"?-->
            <title>Mouth/ 7</title>
            <g id="Mouth/-7" stroke="none" stroke-width="1" fill="none" fill-rule="evenodd"
                stroke-linecap="round" stroke-linejoin="round">
                <path
                    d="M559.810774,753.60177 C566.691716,738.132743 579.421458,738.132743 598,753.60177 L598.555602,753.14234 C616.832552,738.13429 629.377094,738.287434 636.189226,753.60177 C643.001358,768.916106 630.593059,783.900851 598.96433,798.556005 L598,799 C565.659574,784.20354 552.929833,769.070796 559.810774,753.60177 Z"
                    id="Path" stroke="#000000" stroke-width="16" fill="#000000" />
            </g>
        </g>
        <g id="notion-avatar-eyes">      <!--?xml
            version="1.0" encoding="UTF-8"?-->
            <title>Eyes/ 6</title>
            <g id="Eyes/-6" stroke="none" stroke-width="1" fill="none" fill-rule="evenodd">
                <g id="Group" transform="translate(518.000000, 518.575690)">
                    <circle id="Oval" fill="#000000" cx="48.2285714" cy="20" r="20" />
                    <path
                        d="M0,22.4243101 C16,9.09097677 32,2.42431011 48,2.42431011 C64,2.42431011 80,9.09097677 96,22.4243101"
                        id="Path" stroke="#000000" stroke-width="12" stroke-linecap="round"
                        stroke-linejoin="round" />
                    <circle id="Oval" fill="#000000"
                        transform="translate(193.771429, 20.000000) scale(-1, 1) translate(-193.771429, -20.000000) "
                        cx="193.771429" cy="20" r="20" />
                    <path
                        d="M146,22.4243101 C162,9.09097677 178,2.42431011 194,2.42431011 C210,2.42431011 226,9.09097677 242,22.4243101"
                        id="Path" stroke="#000000" stroke-width="12" stroke-linecap="round"
                        stroke-linejoin="round"
                        transform="translate(194.000000, 12.424310) scale(-1, 1) translate(-194.000000, -12.424310) " />
                </g>
            </g>
        </g>
        <g id="notion-avatar-eyebrows">
            <g id="Eyebrows/ 13">
                <g id="Group">
                    <path id="Path" fill-rule="evenodd" clip-rule="evenodd"
                        d="M662.391 482.335C665.391 477.335 722.391 459.335 742.391 462.335C762.391 465.335 791.391 491.335 791.391 491.335C791.391 491.335 764.391 480.335 739.391 480.335C714.391 480.335 679.391 498.335 679.391 498.335C679.391 498.335 659.391 487.335 662.391 482.335Z"
                        fill="black" stroke="black" stroke-width="4" stroke-linecap="round"
                        stroke-linejoin="round" />
                    <path id="Path_2" fill-rule="evenodd" clip-rule="evenodd"
                        d="M615 482.335C612 477.335 555 459.335 535 462.335C515 465.335 486 491.335 486 491.335C486 491.335 513 480.335 538 480.335C563 480.335 598 498.335 598 498.335C598 498.335 618 487.335 615 482.335Z"
                        fill="black" stroke="black" stroke-width="4" stroke-linecap="round"
                        stroke-linejoin="round" />
                </g>
            </g>
        </g>
        <g id="notion-avatar-glasses">      <!--?xml
            version="1.0" encoding="UTF-8"?-->
            <title>Glasses/ 9</title>
            <g id="Glasses/-9" stroke="none" stroke-width="1" fill="none" fill-rule="evenodd"
                stroke-linecap="round" stroke-linejoin="round">
                <g id="Group" transform="translate(289.000000, 466.000000)" fill="#000000"
                    stroke="#000000" stroke-width="4">
                    <path
                        d="M229.149255,5.21037268 C247.672154,10.005924 283.261021,26.6137093 324.690343,43.1526512 L325.464481,43.4558112 C331.11768,45.6282957 339.032765,47.7972932 349.209737,49.9628037 L349.209737,71.3661403 C344.161954,74.4730774 341.061801,77.3917142 339.909277,80.1220507 C325.535839,114.172813 298.479956,136.549029 257.050634,124.874482 C200.767297,109.014157 181.801459,25.6408303 180.110466,12.0205252 C178.419474,-1.59977987 196.205221,-3.31878925 229.149255,5.21037268 Z M470.850745,5.21037268 L472.809163,4.710934 C504.498419,-3.24526836 521.546707,-1.32737377 519.889534,12.0205252 C518.198541,25.6408303 499.232703,109.014157 442.949366,124.874482 C401.520044,136.549029 374.464161,114.172813 360.090723,80.1220507 C358.969348,77.4655071 356.004199,74.630704 351.195275,71.6176415 L350.790263,71.3661403 L350.790263,49.9628037 L352.195626,49.6606168 C362.16219,47.4947819 369.866867,45.3254601 375.309657,43.1526512 L377.788318,42.1603271 C418.155707,25.9541227 452.698304,9.91001298 470.850745,5.21037268 Z"
                        id="Combined-Shape" />
                    <polygon id="Path" points="199 43 4 75 0 84 199 64" />
                </g>
            </g>
        </g>
        <g id="notion-avatar-hair">
            <g id="Hairstyle/ 57">
                <path id="Path" fill-rule="evenodd" clip-rule="evenodd"
                    d="M487 190.996L490.414 190.995C515.198 191.026 598.9 192.55 673 241C751 292 798 423 798 561C798 699 771 758.334 721 873C721 873 764 662.714 764 639C764 568 753 507 708 461C695.022 447.734 675.35 433.069 648.985 417.006C627.277 462.471 602.282 493.802 574 511C500 556 451 526 417 561C394.333 584.334 375 610.667 359 640V611L358.079 609.218C343.026 580.406 327.333 566 311 566C286 566 232 573 232 639C232 683 258.667 709.667 312 719C325.685 746.66 341.351 769.66 359 788C371.109 800.584 232 738 214 639C196 540 201.661 471.698 232 399C262.651 325.553 297.063 277.471 358.282 237.331C402.919 208.064 449.049 190.996 487 190.996Z"
                    fill="black" stroke="black" stroke-width="12" stroke-linecap="round"
                    stroke-linejoin="round" />
            </g>
        </g>
        <g id="notion-avatar-accessories">      <!--?xml
            version="1.0" encoding="UTF-8"?-->
            <title>Accessories/ 0</title>
            <g id="Accessories/-0" stroke="none" stroke-width="1" fill="none" fill-rule="evenodd" />
        </g>
        <g id="notion-avatar-details">      <!--?xml
            version="1.0" encoding="UTF-8"?-->
            <title>Details/ 0</title>
            <g id="Details/-0" stroke="none" stroke-width="1" fill="none" fill-rule="evenodd" />
        </g>
        <g id="notion-avatar-beard">      <!--?xml
            version="1.0" encoding="UTF-8"?-->
            <title>Beard/ 0</title>
            <g id="Beard/-0" stroke="none" stroke-width="1" fill="none" fill-rule="evenodd" />
        </g>
    </g>
</svg>